<?xml version="1.0" standalone="no"?>
<!DOCTYPE svg PUBLIC "-//W3C//DTD SVG 20010904//EN"
 "http://www.w3.org/TR/2001/REC-SVG-20010904/DTD/svg10.dtd">
<svg version="1.0" xmlns="http://www.w3.org/2000/svg"
 width="1080.000000pt" height="1080.000000pt" viewBox="0 0 1080.000000 1080.000000"
 preserveAspectRatio="xMidYMid meet">

<g transform="translate(0.000000,1080.000000) scale(0.100000,-0.100000)"
fill="#000000" stroke="none">
<path d="M3884 5881 c-2 -2 -4 -217 -4 -478 l0 -473 84 0 85 0 3 223 c3 210 4
224 26 258 45 73 154 91 211 35 l26 -26 3 -245 3 -245 85 0 84 0 0 248 c0 266
-8 321 -52 377 -71 91 -274 87 -352 -6 -14 -16 -27 -29 -30 -29 -3 0 -7 82 -8
182 l-3 181 -78 1 c-43 1 -81 -1 -83 -3z"/>
<path d="M4686 5864 c-30 -31 -36 -95 -11 -131 25 -35 83 -48 128 -29 71 29
84 130 22 170 -40 26 -107 21 -139 -10z"/>
<path d="M2590 5380 l0 -450 305 0 305 0 0 75 0 75 -215 0 -215 0 0 125 0 125
185 0 185 0 0 70 0 70 -185 0 -185 0 0 105 0 105 210 0 210 0 0 75 0 75 -300
0 -300 0 0 -450z"/>
<path d="M3440 5756 l-65 -11 -3 -67 -3 -68 -49 0 -50 0 0 -65 0 -65 50 0 50
0 0 -169 c0 -192 10 -260 45 -311 38 -55 78 -73 171 -78 66 -4 89 -1 127 16
26 12 47 27 46 34 0 7 -9 36 -18 63 -16 43 -21 50 -42 47 -13 -2 -43 -6 -66
-9 -33 -4 -45 -1 -62 16 -20 20 -21 32 -21 206 l0 185 95 0 95 0 0 65 0 65
-95 0 c-108 0 -98 -10 -95 103 2 65 6 63 -110 43z"/>
<path d="M5201 5599 c-65 -26 -128 -86 -161 -154 -33 -68 -41 -221 -15 -305
25 -83 78 -148 150 -185 54 -28 66 -30 164 -30 96 0 111 3 163 28 116 57 171
159 171 317 0 155 -51 253 -164 315 -48 26 -65 30 -154 32 -83 3 -109 -1 -154
-18z m227 -146 c53 -39 67 -79 67 -183 0 -105 -14 -144 -68 -184 -39 -29 -135
-29 -174 0 -58 42 -85 152 -64 256 21 98 74 142 164 135 28 -3 60 -13 75 -24z"/>
<path d="M4680 5270 l0 -340 85 0 85 0 0 340 0 340 -85 0 -85 0 0 -340z"/>
</g>
</svg>
